<?xml version="1.0" encoding="utf-8"?>
<!-- Generator: Adobe Illustrator 16.0.0, SVG Export Plug-In . SVG Version: 6.00 Build 0)  -->
<!DOCTYPE svg PUBLIC "-//W3C//DTD SVG 1.1//EN" "http://www.w3.org/Graphics/SVG/1.1/DTD/svg11.dtd">
<svg version="1.1" id="Layer_1" xmlns="http://www.w3.org/2000/svg" xmlns:xlink="http://www.w3.org/1999/xlink" x="0px" y="0px"
	 width="592px" height="592px" viewBox="0 0 592 592" enable-background="new 0 0 592 592" xml:space="preserve">
<g transform="translate(0.000000,592.000000) scale(0.100000,-0.100000)">
	<path fill="#FFFFFF" d="M2720,5658.999c-125-15-156.001-20-255-40c-320-66.001-563.999-151.001-795-276.001
		c-71.001-38.999-332.998-208.999-372.998-242.998c-7.002-6.001-24.004-20-38.003-32.998c-13.999-12.002-47.998-40-75-62.002
		C1125,4957.001,958.999,4791,910,4731c-18.999-23.999-40-48.003-45-53.999C858.999,4670,828.999,4631,798.999,4590
		C571.001,4285,427.002,3985,345,3645c-72.998-303.999-92.002-442.998-92.002-680c0-232.002,15-359.004,77.002-629.004
		c38.999-170,93.999-337.998,156.001-480c47.998-110,178.999-347.998,195-353.994c5-2.002,8.999-7.998,8.999-12.998
		s22.998-42.002,52.002-82.002c180-249.004,356.997-434.004,571.997-596.006C1621.001,580,1907.002,439.004,2250,350.996
		C2566.001,270,2722.002,250,3005,255c110,2.002,210.996,5.996,225,7.998c14.004,2.998,45,7.998,70,11.006
		c142.002,18.994,412.998,82.998,560,132.998c97.998,32.998,242.002,92.002,254.004,103.994c5.996,5,15,9.004,21.992,9.004
		c13.008,0,245,127.998,254.004,140c2.998,4.004,15.996,12.998,27.998,19.004c37.002,20,197.002,133.994,242.998,173.994
		c14.004,12.002,48.008,40,75,62.002C4794.003,962.002,4960,1127.998,5010,1189.004c19.004,23.994,40,47.998,45,53.994
		c5.996,7.002,24.004,30,40,52.002c17.002,22.002,32.998,42.002,35.996,45c3.008,2.998,46.006,67.002,96.006,142.002
		c152.002,230,265.996,478.994,332.002,728.994c30,113.008,78.994,337.002,85,394.004c3.994,27.998,10,82.002,15,120
		c10.996,87.998,10.996,377.002,0,470c-21.006,172.998-31.006,227.998-79.004,430c-47.998,197.998-95,332.002-180.996,512.998
		c-50,107.002-147.002,274.004-161.006,280C5234.003,4420,5230,4426,5230,4431c0,8.999-79.004,122.998-124.004,180
		C5094.003,4625,5074.003,4651,5060,4670c-62.998,83.999-239.004,265-330,340c-30,25-57.002,47.002-60,50
		c-20.996,22.002-252.998,185-340,237.998C4260.996,5340,4032.998,5448.999,3940.996,5485c-80,30-236.992,78.999-290.996,90
		c-7.998,2.002-45,10-80.996,18.999c-68.008,15-75,17.002-164.004,35C3212.998,5667.001,2901.001,5680,2720,5658.999z M3175,5246
		c62.998-5,130.996-13.999,170-22.002c17.002-2.998,40.996-7.998,55-10c50.996-8.999,65-11.997,65-13.999
		c0-1.001,7.998-2.998,19.004-5c60-11.001,122.998-28.999,133.994-37.998c6.006-5,12.002-7.002,12.002-3.003
		c0,3.003,15,0,34.004-7.998c18.994-8.003,36.992-12.002,40-8.003c2.998,3.003,5.996,0,5.996-5.996
		c0-7.002,2.998-11.001,7.998-11.001c4.004,1.001,10,0,15-1.001c4.004-1.001,10-2.998,15-5C3799.003,5101,3810,5096,3810,5087.998
		c0-5.996,5.996-7.998,14.004-5c6.992,3.003,18.994,0,25-5.996c6.992-7.002,16.992-12.002,23.994-13.003
		c25-1.997,57.002-16.997,57.002-25c0-5,9.004-8.999,19.004-8.999c10.996,0,25.996-7.002,35-15
		c7.998-8.999,17.998-16.001,20.996-16.001c12.998,1.001,40.996-13.999,52.998-27.998c11.006-13.003,12.002-13.003,6.006-1.001
		c-4.004,7.998,3.994,5,17.998-7.998c12.998-12.002,27.002-20,30-17.002c2.002,2.998,12.998-3.999,22.998-15s24.004-20,32.002-20
		c7.002,0,12.998-5,12.998-11.001c0-5,5-6.997,10-3.999c5.996,2.998,10,1.001,10-3.999c0-6.001,4.004-10,9.004-8.003
		c5,1.001,16.992-6.997,25.996-17.998s14.004-12.998,10-5s2.998,3.999,14.004-8.999c11.992-13.003,20.996-20,20.996-16.001
		c0,2.998,5.996,0,14.004-7.002c6.992-6.997,23.994-20,35.996-27.998s29.004-21.001,35.996-27.998c8.008-7.002,14.004-10,15-5
		c0,3.999,4.004-2.002,10-15c5-13.003,13.008-20,19.004-17.002c5,2.998,10,1.001,10-5s4.004-8.999,9.004-5
		c5,2.998,11.992-2.998,15.996-13.999c2.998-11.001,12.998-25,22.998-33.003c16.006-11.997,16.006-10.996,2.998,7.002
		c-7.998,11.001,2.002,2.998,22.002-17.002c20-20.996,41.006-37.998,47.998-37.998c7.002,0,10-2.002,7.002-6.001
		c-7.002-6.997,45-61.001,55-56.001c4.004,2.002,7.002-3.999,7.002-12.998c0-7.998,10-20,22.998-25c12.002-5,19.004-8.999,15-8.999
		c-7.998-1.001,27.998-45,75-92.002c15-15,27.002-31.001,27.002-36.001s7.998-15.996,17.998-25
		c37.998-37.998,57.002-60.996,42.002-53.999c-9.004,5-7.998,2.002,2.998-6.997c9.004-8.003,17.002-19.004,17.002-24.004
		c0-5.996,10-17.998,22.998-26.997c12.002-8.999,15-13.999,7.002-11.001c-7.998,3.999-5.996-1.001,5-10s19.004-21.001,17.002-26.001
		c-1.006-5,2.998-8.999,8.994-8.999c5,0,7.002-3.999,4.004-10c-2.998-5-0.996-10,4.004-10c5.996,0,10.996-6.001,10.996-12.998
		c0-8.003,9.004-22.002,20-32.002s17.002-21.001,15-25c-2.998-3.999,2.002-12.998,10-20s12.998-16.001,10-20
		s2.002-11.001,10.996-13.999c8.008-3.003,12.002-10,9.004-16.001c-2.998-5-0.996-10,5-10s7.998-3.999,5-10c-2.998-5-0.996-10,5-10
		s7.998-3.999,5-10c-2.998-5-0.996-10,5-10s7.998-3.999,5-10c-2.998-5-2.002-10,2.998-10c9.004,0,25-37.002,22.998-52.002
		c-0.996-5,4.004-7.998,10-7.998c6.006,0,9.004-7.002,5-15c-2.998-7.998-1.992-15,3.008-15c8.994,0,25.996-47.998,22.998-62.002
		c-1.006-5,2.002-7.998,7.002-7.998s11.992-12.002,16.992-27.002C5115,3750,5115,3751,5124.003,3725
		c22.998-60,26.992-72.998,28.994-92.998c1.006-12.002,5-22.002,10-22.002s7.002-6.001,4.004-13.999
		c-2.998-8.003-2.998-17.002,0.996-21.001c4.004-3.999,7.002-10,7.998-12.998c0-4.004,4.004-19.004,8.008-33.003
		c3.994-13.999,8.994-33.999,10.996-45c2.002-10,4.004-20,5-21.001c2.002-1.997,4.004-11.997,5-22.998s4.004-21.001,5-22.002
		c0.996-1.997,4.004-13.999,5-27.998c2.002-13.999,5.996-36.001,9.004-50c3.994-13.999,8.994-47.002,11.992-75
		c3.008-27.002,7.002-75,10-105c13.008-122.002,6.006-394.004-11.992-515c-3.008-22.002-6.006-50-7.002-62.002
		c0-12.998-4.004-22.998-7.998-22.998c-4.004,0-6.006-10.996-3.008-24.004c2.002-13.994,0-27.998-5.996-30.996
		c-5.996-4.004-7.998-10.996-5-15.996c4.004-5,2.998-14.004-0.996-21.006c-7.002-10.996-13.008-40.996-16.006-75
		c-0.996-7.002-5-12.998-8.994-12.998c-4.004,0-6.006-7.998-5-17.002c1.992-8.994-3.008-27.998-10-40.996
		c-7.002-14.004-10-31.006-7.002-37.998c2.998-8.008-1.006-14.004-7.998-14.004c-7.002,0-10-2.998-7.002-5.996
		c2.998-3.008-2.998-29.004-14.004-57.002c-10-29.004-20.996-61.006-22.998-71.006c-2.998-10.996-10-22.998-17.002-27.998
		c-7.002-3.994-8.994-7.998-3.994-7.998s2.998-7.002-4.004-15s-9.004-15-5-15s2.002-7.002-5-15s-9.004-15-4.004-15
		c4.004,0,0-5.996-10.996-12.998c-10-7.998-15-19.004-10.996-25c3.994-7.002,1.992-12.002-3.008-12.002
		c-5.996,0-10-2.998-8.994-7.998c2.998-10-44.004-106.006-56.006-114.004c-5.996-3.994-6.992-7.998-1.992-7.998
		c5.996,0,0.996-7.002-10-15c-10-7.998-15-15-10-15s0.996-9.004-9.004-20s-15-20-10.996-20c5.996,0-1.006-10.996-31.006-44.004
		c-7.002-7.998-10-15.996-7.002-17.998c2.002-2.998-1.992-10.996-10.996-17.998c-7.998-7.002-15-17.998-15-25.996
		c0-7.002-7.998-19.004-17.002-26.006c-10-7.002-25.996-28.994-37.002-47.998c-10-19.004-32.998-47.998-50-62.998
		c-16.992-16.006-23.994-26.006-15.996-22.002c7.998,2.998,5-2.002-7.002-10.996c-12.998-9.004-22.998-22.002-22.998-30
		c0-7.002-5-16.006-12.002-20c-7.002-5-7.998-3.008-2.998,5.996s4.004,10.996-2.998,5.996c-7.002-3.994-12.002-12.998-12.002-18.994
		c0-7.002-15-26.006-34.004-44.004c-18.994-17.002-31.992-33.994-28.994-37.002c3.994-2.998-1.006-5.996-11.006-5.996
		c-8.994,0-20.996-10-25.996-22.002c-5-12.998-9.004-18.994-9.004-15c-0.996,12.998-30.996-20-30.996-33.994
		c0-7.002-2.998-10-5.996-7.002c-3.008,3.994-24.004-12.002-47.002-35C4475,1234.004,4462.998,1224.004,4470,1235
		c7.998,10.996-2.002,4.004-22.002-15c-67.998-67.002-112.002-105-102.998-90c7.998,15-42.998-25-57.002-45
		c-3.994-5-7.998-5.996-7.998-0.996c0,3.994-9.004-2.002-20.996-15c-11.006-13.008-17.002-17.002-13.008-9.004
		c4.004,7.998-2.998,5-15-7.002c-11.992-12.998-25-22.998-30-22.998c-3.994,0-17.998-9.004-30.996-20s-29.004-20-35-20
		c-7.002,0-17.998-7.002-25-15s-15.996-12.002-20.996-9.004c-5,3.008-9.004,0-9.004-5c0-5.996-7.002-10.996-15-10.996
		s-15-4.004-15-9.004s-12.998-11.992-30-15.996c-15.996-4.004-30-10.996-30-15.996c0-6.006-4.004-7.002-10-4.004
		c-5,2.998-10,2.002-10-2.998c0-9.004-20.996-17.998-59.004-27.002c-7.998-2.002-17.998-10-21.992-17.002c-5-7.002-9.004-10-9.004-5
		c0,4.004-12.998,1.006-30-7.998c-15.996-9.004-30-12.002-30-7.998c0,5-4.004,2.002-9.004-5c-3.994-7.002-17.998-14.004-28.994-15
		c-12.002-1.006-22.002-5-22.002-10c0-4.004-4.004-5-10-2.002c-5,2.998-10,2.002-10-2.998s-7.002-9.004-15-10
		c-7.998-1.006-22.002-2.998-30-4.004c-7.998-0.996-15-5-15-8.994c0-5-7.002-6.006-15-3.008c-7.998,4.004-15,1.006-15-3.994
		c0-6.006-7.998-11.006-17.002-11.006c-38.994-0.996-52.998-5-52.998-12.998c0-5-4.004-7.002-9.004-3.994
		c-5,2.998-23.994,0-41.992-7.002C3510,729.004,3487.998,724.004,3480,725s-20-2.998-27.002-7.998s-17.002-6.006-22.002-2.998
		c-5,3.994-11.992,1.992-15.996-4.004c-2.998-5.996-17.002-7.998-30-5.996c-14.004,2.998-27.002,0.996-30-4.004
		s-12.998-9.004-22.998-9.004c-21.006,0-97.002-8.994-97.002-10.996c0-10.996-376.001-15.996-480-5.996
		c-102.998,8.994-148.999,15-175,21.992c-13.999,3.008-36.001,7.002-50,9.004s-27.002,4.004-30,5s-8.999,2.998-15,5
		c-5,0.996-12.002,2.998-15,4.004c-2.998,1.992-16.001,5-30,5.996c-37.998,5.996-53.999,10-67.002,17.998
		c-6.997,5-16.997,5-22.998,2.002c-5-2.998-10-2.002-10,4.004c0,5.996-6.001,7.998-13.999,5c-8.003-3.008-17.002-1.006-20,5
		c-3.999,5.996-13.003,7.998-21.001,3.994c-7.998-2.998-15,0-15,6.006c0,5.996-2.998,10-7.002,10c-5-1.006-10-1.006-12.998,0.996
		c-2.998,0.996-15,2.998-27.998,5.996c-13.003,2.002-36.001,11.006-53.003,19.004c-16.001,9.004-28.999,12.002-28.999,7.998
		c0-5-3.999-2.998-7.998,2.002c-4.004,5.996-25,15.996-47.002,22.998c-63.999,22.002-95,36.006-95,44.004
		c0,5-2.998,7.998-7.002,7.002c-15.996-2.002-52.998,13.994-52.998,22.998c0,5-3.999,5.996-10,2.998c-5-2.998-10-0.996-10,5
		s-3.999,7.998-10,5c-5-2.998-10-0.996-10,5s-3.999,7.998-10,5c-5-2.998-10-0.996-10,4.004c0,5.996-7.002,10.996-15,10.996
		s-15,5-15,10.996c0,5-3.999,7.002-10,4.004c-5-2.998-10-0.996-10,4.004c0,5.996-2.998,10-7.002,10
		c-21.997-4.004-32.998,1.992-26.997,12.998c5,7.002,1.997,8.994-8.003,5.996c-7.998-3.994-27.998,6.006-45.996,22.998
		c-18.003,17.002-32.002,27.002-32.002,23.008c0-4.004-7.002,0.996-16.001,11.992c-7.998,10-12.998,12.002-8.999,4.004
		s-1.001-5.996-8.999,4.004C1657.002,1075,1650,1080,1650,1075c0-4.004-7.998,2.002-18.999,12.998
		c-10,12.002-21.001,22.002-25,22.002c-7.002,0-38.003,25-70,55c-12.002,10.996-23.003,19.004-26.001,17.998
		c-2.998-0.996-17.002,7.998-30,19.004c-13.999,10.996-18.999,15.996-11.001,12.002c8.999-5,12.002-3.008,7.002,3.994
		c-3.999,7.002-13.003,12.002-20,12.002c-6.001,0-23.003,12.998-36.001,30c-13.999,15.996-30,29.004-37.002,30
		c-5.996,0-15,5-18.999,12.002c-5,7.002-2.998,7.998,7.002,2.998c7.998-5,1.001,5-16.001,20.996
		c-16.001,16.006-32.998,28.008-37.002,26.006c-5-2.002-7.998,3.994-7.998,12.998s-8.999,19.004-20,22.002s-17.998,7.998-15,12.002
		c2.002,3.994-7.002,15-21.001,25c-12.998,10.996-23.999,25-23.999,31.992c0,7.002-5,16.006-12.002,20
		c-6.997,5-8.999,2.002-3.999-6.992c3.999-8.008-1.001-3.008-11.997,10.996c-11.001,12.998-20,27.998-19.004,32.002
		c1.001,3.994-10.996,18.994-27.998,32.998c-16.001,15-22.998,22.998-15,19.004c7.998-4.004,3.999,3.994-10,18.994
		c-52.002,54.004-65,70-50,62.002c7.998-4.004,6.001,0.996-5,12.998c-33.999,35-42.002,47.998-48.999,70
		c-3.999,12.002-12.002,22.002-17.002,22.002s-8.999,5.996-8.999,14.004c0,6.992-7.002,18.994-15,25.996s-12.998,15.996-10,20
		s-2.002,12.998-10,20s-15,19.004-15,25.996c0,8.008-5,14.004-11.001,14.004c-5,0-6.997,5-3.999,10c2.998,5.996,1.001,10-5,10
		s-7.998,5-5,10c2.998,5.996,1.001,10-5,10s-7.998,5-5,10c2.998,5.996,1.001,10-5,10s-7.998,5-5,10c2.998,5.996,2.002,10-2.998,10
		c-9.004,0-25,37.002-23.003,52.002c1.001,5-3.999,7.998-10,7.998s-7.998,7.002-5,15c3.003,9.004,0,17.998-7.998,20.996
		c-7.002,3.008-13.003,10-13.003,17.002c-0.996,21.006-7.998,42.002-15.996,47.998c-4.004,3.008-9.004,14.004-12.002,25
		c-2.002,10-12.998,42.002-22.998,71.006c-11.001,27.998-17.002,53.994-14.004,57.002c3.003,2.998,1.001,5.996-5,5.996
		c-8.999,0-10.996,5.996-15,50c-0.996,10.996-5,20-7.998,20c-3.999,0-7.002,5.996-7.998,12.998c0,6.006-4.004,26.006-7.002,42.002
		c-3.999,17.002-7.998,37.002-10,45s-3.999,15-5,15c-2.002,0-7.998,29.004-15,75c-3.999,19.004-7.998,45.996-11.001,60
		c-18.999,107.998-26.001,214.004-26.001,380c1.001,131.001,7.002,265,12.002,265c1.001,0,2.998,13.999,5,30
		c2.998,28.999,11.001,86.001,21.001,135c2.998,13.999,6.001,33.999,8.999,45c2.002,11.001,3.999,20,5,20s2.998,7.002,5,15
		s6.001,28.999,10,45c8.999,42.002,12.998,60,15,62.998c2.002,1.001,3.999,7.002,5,12.002c1.001,6.001,2.998,12.002,3.999,15
		c0,2.998,1.001,7.998,2.002,12.998c1.001,4.004,6.997,23.003,13.999,42.002c16.001,42.002,23.999,67.998,26.001,77.998
		c0,4.004,5,13.003,11.001,20c5.996,6.001,6.997,12.002,3.999,12.002c-3.999,0-1.001,10,6.001,22.998
		C828.999,3815,835,3827.001,835,3830s6.001,15,12.998,26.001c6.001,11.997,8.003,23.999,5,27.998c-2.998,3.003-0.996,6.001,5,6.001
		C865,3890,870,3896,870,3902.998c0,19.004,23.999,67.002,32.998,67.002c5,0,5,5,2.002,10c-2.998,6.001-2.002,10,3.999,10
		c5,0,12.002,13.999,16.001,30c3.999,17.002,10,30,13.999,30S952.002,4066,960,4085s17.002,35,21.001,35s10,11.001,12.998,25
		c3.999,13.999,11.001,25,17.002,25s6.997,5,3.999,10c-2.998,6.001-2.002,10,2.998,10S1035,4206,1045,4226
		c8.999,18.999,22.998,37.998,31.001,41.001C1083.999,4270,1090,4277.998,1090,4285s12.002,25,27.998,40c15,16.001,20,25,12.002,20
		c-7.998-3.999,1.001,7.998,20,28.999c18.999,20,51.001,53.003,70,73.003s27.998,32.998,20,26.997c-8.999-5-7.002-1.001,5,10
		c11.001,10,18.999,23.003,17.998,27.002c-1.997,5,4.004,8.999,12.002,8.999s15,7.002,15,17.002c0,8.999,2.998,13.999,6.001,10
		c6.997-7.002,41.997,25.996,36.997,35.996c-1.997,4.004,3.003,7.002,11.001,7.002c8.003,0,18.003,5,22.002,12.002
		c5,6.997,2.998,7.998-6.001,2.998s-11.001-3.999-6.001,2.998c3.999,7.002,12.002,12.002,17.002,12.002
		c6.001,0,26.001,16.001,45,36.001S1450,4690,1450,4687.001c0-3.003,20,13.999,43.999,38.999c25,23.999,51.001,43.999,58.999,43.999
		c8.003,0,22.002,12.002,32.002,26.001c8.999,13.999,18.999,22.998,22.002,21.001c1.997-3.003,15,3.999,27.998,15
		c12.998,10.996,26.001,18.999,28.999,18.999c3.999-1.001,15,6.997,26.001,16.997s32.998,25,47.998,33.003
		c15,7.998,32.002,16.997,37.002,21.997c37.002,28.003,85,55,80,45c-3.999-6.997,0-5,7.998,4.004c8.003,10,17.002,15,20,10.996
		c4.004-2.998,7.002-0.996,7.002,5c0,7.002,8.999,12.002,20,12.002s20,5,20,11.001c0,5,5,6.997,10,3.999
		c6.001-2.998,10-2.002,10,2.998c0,9.004,37.002,25,52.998,23.003c4.004-1.001,7.002,3.999,7.002,11.001
		c0,5.996,2.998,7.998,7.002,5c2.998-4.004,11.997-2.002,20,3.999c6.997,6.001,12.998,7.998,12.998,2.998s3.999-3.999,7.998,3.003
		c4.004,5.996,16.001,12.998,27.002,15c11.001,0.996,26.001,8.999,33.999,15.996c7.002,7.002,20,11.001,27.002,8.003
		c7.998-3.003,13.999-1.001,13.999,5s3.999,7.998,8.999,3.999c5-2.998,12.002-1.001,16.001,5s11.001,7.998,16.001,5
		c5-3.999,8.999-1.001,8.999,5c0,7.002,6.001,10,13.999,7.002c7.002-3.003,18.003-1.001,22.002,2.998
		c5,5,17.998,11.001,28.999,12.998c11.001,1.001,26.001,6.001,32.998,10c6.001,5,17.002,5,22.002,2.002
		c6.001-2.998,10-1.001,10,3.999c0,6.001,2.998,10,7.998,8.999c4.004-0.996,21.001,1.001,37.002,5c60,14.004,80,19.004,100,22.002
		c11.001,2.002,20,3.999,20,5c0,6.001,137.002,26.001,243.999,33.999c35,3.003,66.001,7.002,67.002,8.999
		C2821.001,5257.001,3112.002,5252.001,3175,5246z"/>
	<path fill="#FFFFFF" d="M2220,4266c0-5-2.998-6.001-7.002-3.003c-2.998,4.004-11.997,2.002-20-3.999
		c-6.997-6.001-12.998-7.998-12.998-5c0,8.999-23.999-11.001-67.998-56.001c-20-20.996-42.002-37.998-48.003-37.998
		c-6.997,0-15-7.002-17.998-16.001c-3.003-7.998-10-11.997-16.001-8.999c-5,2.998-10-1.001-10-8.999c0-8.999-2.998-15-7.002-13.999
		c-5,0.996-35-25-67.998-57.002c-32.998-32.998-52.998-56.001-45-51.001c7.998,3.999,3.999-1.997-10-13.999s-17.998-18.999-10-15
		s6.001-1.001-3.999-8.999C1865,3957.001,1860,3950,1863.999,3950s0-7.002-7.998-16.001c-8.999-7.998-16.001-21.997-16.001-30
		c0-7.998-5-13.999-11.001-13.999c-5,0-7.998-3.999-3.999-8.999c2.998-5-2.002-17.002-11.001-25
		c-7.998-8.999-11.997-16.001-7.998-16.001c2.998,0,1.001-7.002-6.001-15s-8.999-15-5-15s2.002-7.002-5-15s-8.999-15-5-15
		s2.002-7.002-5-15s-8.999-15-5-15s2.002-7.002-5-15s-10-15-7.002-15c3.003,0,1.001-15-3.999-32.002
		C1730,3588.999,1731.001,3295,1760,3220c1.001-2.998,2.002-8.999,1.001-12.998c-1.001-4.004,2.998-16.001,7.998-26.001
		c6.001-10,13.003-33.003,16.001-52.002c2.998-17.998,11.001-36.001,16.001-40c6.001-2.998,8.999-10,7.998-15
		c-1.997-8.999,2.002-21.001,32.002-91.997c10-23.003,17.998-46.006,18.999-50c1.001-4.004,7.998-17.002,16.001-29.004
		c7.998-12.998,11.001-22.998,6.997-22.998c-5,0,0-5,10-10.996c9.004-6.006,15-14.004,12.002-20c-3.999-5-1.001-9.004,5-9.004
		s7.998-4.004,5-10c-2.998-5-1.001-10,5-10s7.998-4.004,5-10c-2.998-5-1.001-10,6.001-10c6.997,0,10-2.998,6.001-5.996
		c-3.003-3.008,2.998-14.004,13.999-25c11.001-11.006,16.997-24.004,13.999-28.008c-2.002-5,2.002-11.992,11.001-15
		c7.998-2.998,11.997-10,8.999-15.996c-2.998-5-1.001-10,6.001-10c6.997,0,10-2.998,6.001-5.996
		c-3.003-4.004,3.999-15,15.996-26.006c12.002-10.996,15-17.002,7.002-12.998s-3.999-2.998,8.999-14.004
		c13.003-11.992,20-20.996,15-20.996c-3.999,0,1.001-7.002,12.002-15.996c10-8.008,11.997-12.002,3.999-8.008
		c-7.998,3.008,1.001-7.998,20-25.996s26.001-25.996,15-19.004c-15,9.004-13.999,6.006,5-13.994c71.001-76.006,75-81.006,55-67.002
		c-11.001,7.998-2.002-4.004,20-25.996c52.998-52.002,75-81.006,67.998-88.008c-3.999-2.998,1.001-5.996,10-5.996
		c9.004,0,19.004-5,23.003-12.002c5-7.002,2.998-7.998-7.002-2.998c-7.998,5,12.002-17.002,43.999-47.998
		C2343.999,2255,2370,2225,2370,2219.004c0-6.006,2.998-8.008,7.998-6.006c7.002,2.998,52.002-37.998,48.003-45
		c0-2.002,13.999-18.994,32.998-37.998s31.001-27.998,27.002-20c-5,7.998,5,0.996,21.997-17.002
		c16.001-17.002,33.003-28.994,36.001-25.996c3.003,3.994,6.001-1.006,6.001-10c0-10,6.001-17.002,13.999-17.002
		c8.003,0,23.003-10.996,33.999-25c11.001-14.004,25-25,32.002-25c6.001,0,7.998-5,5-10c-2.998-5.996,1.001-10,8.999-10
		c8.999,0,16.001-4.004,16.001-10c0-5,6.001-10,12.998-10c6.001,0,28.003-14.004,47.002-30c47.998-40,51.001-42.998,82.998-59.004
		c15-7.998,27.002-17.998,27.002-22.998s3.999-7.002,8.999-3.994c5,2.998,13.999-1.006,21.001-9.004s16.001-12.998,20-10
		s11.001-2.002,13.999-10.996c3.003-8.008,10-12.002,16.001-9.004c5,2.998,10,0.996,10-5s5-7.998,10-5c6.001,2.998,10,0.996,10-5
		s5-7.998,10-5c6.001,2.998,10,0.996,10-5s3.999-9.004,9.004-5.996c5,2.998,13.994-1.006,20.996-9.004s15.996-12.002,20.996-9.004
		c5,3.008,9.004,0,9.004-6.992c0-7.002,2.998-9.004,7.002-6.006c2.998,4.004,15-0.996,25.996-10c11.006-10,17.002-12.002,12.998-5
		c-6.992,11.006-3.994,11.006,15,0c13.008-7.002,26.006-15,29.004-17.998c5-5,14.004-7.002,50-15
		c7.998-2.002,27.002-7.998,40.996-12.998c15-6.006,29.004-7.998,32.002-5s12.002,0.996,19.004-2.998
		c7.002-5,23.994-9.004,37.998-9.004s30-2.998,35-5.996c15.996-9.004,290,0.996,290,10.996c0,0.996,10.996,2.998,25,5
		c32.002,5.996,64.004,12.998,67.998,15c1.006,2.002,6.006,2.998,11.006,4.004c5,0,11.992,3.994,15.996,7.998
		c4.004,3.994,12.998,3.994,20.996,0.996c8.008-2.998,14.004-0.996,14.004,5c0,9.004,25.996,20,40.996,17.998
		c3.008-0.996,13.008,7.002,23.008,17.002c10,9.004,21.992,15,26.992,12.002c5-4.004,9.004-0.996,9.004,5s4.004,9.004,9.004,5.996
		c5-2.998,11.992,1.006,15,10c2.998,8.008,10,13.008,13.994,10c5-2.998,15,4.004,22.002,15c7.998,10,20,19.004,27.998,19.004
		c7.002,0,11.006,2.998,9.004,7.998c-2.998,4.004,0.996,12.998,8.994,20c8.008,7.002,14.004,11.006,14.004,7.998
		c0-2.998,17.998,14.004,40,36.006c22.002,22.998,40,37.998,40,32.998c0.996-5.996,7.002,0.996,15,15s14.004,20.996,15,17.002
		c0-12.998,30,20,30,32.998c0,5.996,4.004,9.004,7.998,5.996c5-2.998,15,10,22.002,29.004c7.998,19.004,17.002,35,20.996,35
		c3.008,0,5,24.004,4.004,52.998c-2.998,57.998-7.002,80-17.002,87.002c-2.998,2.998-7.998,12.002-10,19.004
		c-3.994,17.998-22.998,40.996-95.996,116.992c-31.006,32.002-50,50-42.998,39.004c7.998-10.996-3.008-2.998-23.008,17.002
		c-20,20.996-35.996,35-35.996,32.002c0-3.008-15.996,10.996-35,30c-19.004,20-35,32.998-35,30c0-4.004-7.998,1.992-17.998,11.992
		C3839.003,2522.002,3785.996,2565,3800,2545c14.004-19.004,14.004-19.004-10,0c-27.002,22.002-59.004,39.004-100,50.996
		c-37.998,12.002-132.998,12.002-149.004,0c-11.992-8.994-12.998-7.998-5.996,3.008c9.004,15-75-27.002-87.002-44.004
		c-3.994-5-7.998-5.996-7.998-0.996s-9.004-2.002-20.996-15c-12.002-13.008-26.006-22.002-33.008-21.006
		c-5.996,2.002-7.998,0-3.994-3.994c5-4.004-10-24.004-32.002-45c-22.002-21.006-40-44.004-40-50c0-7.002-2.998-9.004-5.996-6.006
		c-4.004,4.004-17.002-5-29.004-18.994c-12.002-14.004-27.998-26.006-35.996-27.002C3230.996,2365,3217.998,2360,3210,2355
		s-19.004-10-25-10.996c-5-1.006-24.004-5-42.002-8.008c-17.002-2.998-33.994-1.992-37.998,3.008
		c-2.998,5.996-14.004,7.998-25,5.996s-20,0-20,5s-7.002,7.002-15,4.004c-7.998-4.004-15-2.002-15,1.992c0,5-20,20-45,33.008
		c-25,12.998-45,27.998-45,31.992c0,5-6.001,9.004-13.999,9.004c-8.003,0-23.999,12.002-36.001,27.998
		c-12.002,15-18.999,20-15,12.002s-3.999-2.998-17.002,12.998C2845,2497.998,2830,2510,2825,2510
		c-3.999,0-46.001,39.004-91.001,87.998c-46.001,47.998-92.998,96.006-103.999,107.998c-11.001,12.002-20,25-20,30
		s-8.999,15-20,22.002c-12.002,7.002-17.998,17.002-15,21.006c2.002,5-2.002,10.996-10,15c-7.998,2.998-15,12.998-15,20.996
		c0,9.004-3.999,12.998-10,10c-5-2.998-10,0.996-10,9.004c0,8.994-5,15.996-11.001,15.996c-5,0-7.998,4.004-5,9.004
		c3.003,5-1.001,10.996-8.999,15c-7.998,2.998-15,11.992-15,20.996c0,7.998-5,15-11.001,15c-5,0-6.997,5-3.999,10
		c2.998,5.996,2.002,10-2.998,10c-7.002,0-33.003,42.002-37.002,60c0,2.998-7.002,16.001-15,30s-15,27.998-16.001,32.998
		c-1.001,4.004-1.997,8.003-3.999,10c-2.002,2.002-8.999,33.003-16.001,67.002c-7.998,40-5,88.999,5,108.999
		c6.001,10,8.003,21.001,5,23.999c-2.998,2.002,8.003,14.004,25,26.001c16.001,12.002,33.003,30,36.001,41.001
		c3.999,11.001,10,17.998,15,15c3.999-2.998,10,2.002,13.999,10c3.003,7.998,10,15,15,15c6.001,0,21.001,10,33.999,22.998
		c54.004,50,75,67.002,82.002,67.002c11.001,0,33.999,27.002,27.998,33.999c-3.999,3.003,1.001,6.001,10,6.001
		c10,0,17.002,6.001,17.002,12.998c0,8.003,8.999,22.002,20,32.002s17.002,22.002,13.999,26.001c-2.998,5-1.997,15,3.003,21.997
		c10.996,17.002,10.996,140,0,154.004c-5,6.997-6.001,16.997-3.003,21.997c3.999,5,2.002,12.002-3.999,16.001
		s-7.998,11.001-5,16.001c3.999,5,1.001,8.999-5,8.999s-7.998,5-5,10c2.998,6.001,1.001,10-5,10s-7.998,5-3.999,12.002
		c3.999,5.996,1.001,15.996-7.002,21.997c-16.997,13.003-52.998,76.001-42.998,76.001c2.998,0-3.999,8.999-17.002,21.001
		c-12.998,11.001-16.997,17.998-8.999,13.999s6.001,1.001-5,10S2576.001,4006,2577.998,4011c1.001,5-2.998,8.999-8.999,8.999
		c-5,0-6.997,5-3.999,10c2.998,6.001,1.001,10-3.999,10c-6.001,0-11.001,7.002-11.001,15c0,8.999-12.002,27.002-26.001,40
		c-15,13.999-22.998,25-18.999,25s-3.999,8.999-18.999,21.001c-13.999,11.001-26.001,25-26.001,31.001c0,11.997-50,60.996-50,50
		c0-4.004-7.002,1.997-15,11.997c-7.998,11.001-15,16.001-15,12.002s-7.002,0-16.001,7.998c-16.997,18.003-16.997,18.003-91.001,20
		C2243.999,4275,2220,4271,2220,4266z"/>
</g>
</svg>
