<?xml version="1.0" encoding="utf-8"?>
<!-- Generator: Adobe Illustrator 16.0.0, SVG Export Plug-In . SVG Version: 6.00 Build 0)  -->
<!DOCTYPE svg PUBLIC "-//W3C//DTD SVG 1.1//EN" "http://www.w3.org/Graphics/SVG/1.1/DTD/svg11.dtd">
<svg version="1.1" id="Layer_1" xmlns="http://www.w3.org/2000/svg" xmlns:xlink="http://www.w3.org/1999/xlink" x="0px" y="0px"
	 width="418px" height="450px" viewBox="0 0 418 450" enable-background="new 0 0 418 450" xml:space="preserve">
<g transform="translate(0.000000,450.000000) scale(0.100000,-0.100000)">
	<path fill="#FFFFFF" d="M88.999,4467.001C71.001,4455,45,4428.999,32.998,4411L10,4377.001V2578.999
		C10,1330,12.998,772.998,21.001,752.998c6.001-15,20-38.994,31.997-52.002C65,687.998,376.001,527.002,745,342.998
		c651.001-325.996,671.001-335,717.998-330c51.001,4.004,88.003,26.006,121.001,71.006L1605,110.996l2.998,1792.002
		c1.001,986.001,0,1806.001-2.998,1824.004c-12.002,65.996-42.002,86.997-403.999,267.998L855,4168.999h777.998L2410,4170v-720V2731
		l-269.004-3.003c-253.994-2.998-270.996-3.999-296.997-23.999C1791.001,2665,1775,2632.998,1775,2570
		c0-62.998,16.001-95,68.999-133.999C1871.001,2415,1880,2415,2747.998,2412.002l876.006-2.002l-281.006-282.998
		c-303.994-304.004-305-306.006-287.998-394.004c9.004-48.994,69.004-108.994,117.998-117.998
		c91.006-17.002,77.002-29.004,540,432.998c236.006,235,435,439.004,442.998,454.004c18.008,35,18.008,100.996,0,135.996
		c-7.998,15-206.992,219.004-442.998,454.004c-462.998,461.997-448.994,450-540,432.998C3124.003,3516,3064.003,3456,3055,3407.001
		c-17.002-88.003-15.996-90,287.998-394.004L3625,2730h-447.998H2730l-2.002,828.999c-2.998,820-2.998,830-23.994,857.002
		c-11.006,15-33.008,36.997-48.008,47.998c-26.992,21.001-32.998,21.001-1279.995,23.999L122.998,4490L88.999,4467.001z M1290,2010
		V430L810,670L330,910v1580v1580l480-240l480-240V2010z"/>
	<path fill="#FFFFFF" d="M2505,2235.996c-37.002-16.992-70-51.992-84.003-88.994c-6.992-19.004-10.996-220-10.996-602.002V970.996
		l-269.004-2.998C1887.002,965,1870,964.004,1843.999,944.004C1791.001,905,1775,872.998,1775,810s16.001-95,68.999-134.004
		c27.002-20,38.999-20.996,406.001-20.996c367.001,0,379.003,0.996,405.996,20.996c15,11.006,37.002,33.008,48.008,48.008
		C2725,750.996,2725,760,2725,1450s0,699.004-20.996,725.996c-11.006,15-32.002,37.002-46.006,47.002
		C2624.003,2247.998,2545,2255,2505,2235.996z"/>
</g>
</svg>
